<?xml version="1.0" encoding="utf-8"?>
<!DOCTYPE svg PUBLIC "-//W3C//DTD SVG 1.1//EN" "http://www.w3.org/Graphics/SVG/1.1/DTD/svg11.dtd">
<svg xmlns="http://www.w3.org/2000/svg" xmlns:xlink="http://www.w3.org/1999/xlink" viewBox="0 0 50 50" width="50px" height="50px">
	<g>
		<path fill="#000000" stroke="#000000" d="M25,35c-5.514,0-10-4.486-10-10c0-5.514,4.486-10,10-10c5.514,0,10,4.486,10,10C35,30.514,30.514,35,25,35z" />
	</g>
	<line fill="none" stroke="#000000" stroke-width="2" stroke-linecap="round" stroke-miterlimit="10" x1="25" y1="45" x2="25" y2="42" />
	<line fill="none" stroke="#000000" stroke-width="2" stroke-linecap="round" stroke-miterlimit="10" x1="25" y1="11" x2="25" y2="8" />
	<line fill="none" stroke="#000000" stroke-width="2" stroke-linecap="round" stroke-miterlimit="10" x1="8" y1="25" x2="11" y2="25" />
	<line fill="none" stroke="#000000" stroke-width="2" stroke-linecap="round" stroke-miterlimit="10" x1="39" y1="25" x2="42" y2="25" />
	<line fill="none" stroke="#000000" stroke-width="2" stroke-linecap="round" stroke-miterlimit="10" x1="10.858" y1="42.143" x2="13.101" y2="39.9" />
	<line fill="none" stroke="#000000" stroke-width="2" stroke-linecap="round" stroke-miterlimit="10" x1="36.898" y1="13.102" x2="39.143" y2="10.858" />
	<line fill="none" stroke="#000000" stroke-width="2" stroke-linecap="round" stroke-miterlimit="10" x1="10.858" y1="10.858" x2="13.101" y2="13.102" />
	<line fill="none" stroke="#000000" stroke-width="2" stroke-linecap="round" stroke-miterlimit="10" x1="36.898" y1="36.9" x2="39.143" y2="39.143" />
</svg>
