<svg xmlns="http://www.w3.org/2000/svg" xmlns:xlink="http://www.w3.org/1999/xlink" version="1.1" width="64" height="64" viewBox="0 -10 100 100" xml:space="preserve">
	<defs>
	</defs>
	<g style="stroke: none; stroke-width: 0; stroke-dasharray: none; stroke-linecap: butt; stroke-linejoin: miter; stroke-miterlimit: 10; fill: none; fill-rule: nonzero; opacity: 1;" transform="translate(0 0)">
		<path d="M 64.465 54.206 c -1.657 0 -3 -1.343 -3 -3 V 22.131 c 0 -1.657 1.343 -3 3 -3 s 3 1.343 3 3 v 29.075 C 67.465 52.863 66.122 54.206 64.465 54.206 z" style="stroke: none; stroke-width: 1; stroke-dasharray: none; stroke-linecap: butt; stroke-linejoin: miter; stroke-miterlimit: 10; fill: rgb(0, 0, 0); fill-rule: nonzero; opacity: 1;" transform=" matrix(1 0 0 1 0 0) " stroke-linecap="round" />
		<path d="M 37.854 54.206 c -1.657 0 -3 -1.343 -3 -3 V 22.131 c 0 -1.657 1.343 -3 3 -3 s 3 1.343 3 3 v 29.075 C 40.854 52.863 39.511 54.206 37.854 54.206 z" style="stroke: none; stroke-width: 1; stroke-dasharray: none; stroke-linecap: butt; stroke-linejoin: miter; stroke-miterlimit: 10; fill: rgb(0, 0, 0); fill-rule: nonzero; opacity: 1;" transform=" matrix(1 0 0 1 0 0) " stroke-linecap="round" />
		<path d="M 27.534 90 c -0.387 0 -0.776 -0.074 -1.147 -0.229 c -1.121 -0.464 -1.852 -1.558 -1.852 -2.771 V 75.861 H 5.079 c -1.657 0 -3 -1.343 -3 -3 V 3 c 0 -1.657 1.343 -3 3 -3 h 79.842 c 1.657 0 3 1.343 3 3 v 53.228 c 0 0.796 -0.316 1.559 -0.879 2.121 L 70.408 74.982 c -0.563 0.563 -1.325 0.879 -2.121 0.879 H 42.916 l -13.26 13.26 C 29.082 89.695 28.314 90 27.534 90 z M 8.079 69.861 h 19.455 c 1.657 0 3 1.343 3 3 v 6.896 l 9.018 -9.018 c 0.563 -0.563 1.326 -0.879 2.121 -0.879 h 25.372 l 14.876 -14.876 V 6 H 8.079 V 69.861 z M 84.921 56.228 h 0.01 H 84.921 z" style="stroke: none; stroke-width: 1; stroke-dasharray: none; stroke-linecap: butt; stroke-linejoin: miter; stroke-miterlimit: 10; fill: rgb(0, 0, 0); fill-rule: nonzero; opacity: 1;" transform=" matrix(1 0 0 1 0 0) " stroke-linecap="round" />
	</g>
</svg>
